<mxfile host="app.diagrams.net" modified="2020-12-04T19:38:37.095Z" agent="5.0 (Windows NT 10.0; Win64; x64) AppleWebKit/537.36 (KHTML, like Gecko) Chrome/87.0.4280.88 Safari/537.36" etag="oUX1XiOkYFLYynVLAN0P" version="13.10.6" type="github">
  <diagram id="4U88fpsjOHlWc9RZ3hsg" name="Page-1">
    <mxGraphModel dx="1422" dy="762" grid="1" gridSize="10" guides="1" tooltips="1" connect="1" arrows="1" fold="1" page="1" pageScale="1" pageWidth="850" pageHeight="1100" math="0" shadow="0">
      <root>
        <mxCell id="0" />
        <mxCell id="1" parent="0" />
        <mxCell id="FStIwJPfXAHOJmof_Va--5" style="edgeStyle=orthogonalEdgeStyle;rounded=0;orthogonalLoop=1;jettySize=auto;html=1;entryX=0;entryY=0.5;entryDx=0;entryDy=0;" edge="1" parent="1" source="FStIwJPfXAHOJmof_Va--1" target="FStIwJPfXAHOJmof_Va--4">
          <mxGeometry relative="1" as="geometry" />
        </mxCell>
        <mxCell id="FStIwJPfXAHOJmof_Va--1" value="Start" style="ellipse;whiteSpace=wrap;html=1;" vertex="1" parent="1">
          <mxGeometry x="30" y="40" width="90" height="60" as="geometry" />
        </mxCell>
        <mxCell id="FStIwJPfXAHOJmof_Va--7" value="" style="edgeStyle=orthogonalEdgeStyle;rounded=0;orthogonalLoop=1;jettySize=auto;html=1;" edge="1" parent="1" source="FStIwJPfXAHOJmof_Va--4">
          <mxGeometry relative="1" as="geometry">
            <mxPoint x="420" y="140" as="targetPoint" />
          </mxGeometry>
        </mxCell>
        <mxCell id="FStIwJPfXAHOJmof_Va--22" style="edgeStyle=orthogonalEdgeStyle;rounded=0;orthogonalLoop=1;jettySize=auto;html=1;exitX=0.5;exitY=1;exitDx=0;exitDy=0;entryX=0;entryY=0.5;entryDx=0;entryDy=0;" edge="1" parent="1" source="FStIwJPfXAHOJmof_Va--4" target="FStIwJPfXAHOJmof_Va--19">
          <mxGeometry relative="1" as="geometry" />
        </mxCell>
        <mxCell id="FStIwJPfXAHOJmof_Va--4" value="User" style="rounded=1;whiteSpace=wrap;html=1;" vertex="1" parent="1">
          <mxGeometry x="160" y="120" width="100" height="40" as="geometry" />
        </mxCell>
        <mxCell id="FStIwJPfXAHOJmof_Va--8" value="Select" style="text;html=1;align=center;verticalAlign=middle;resizable=0;points=[];autosize=1;" vertex="1" parent="1">
          <mxGeometry x="290" y="120" width="50" height="20" as="geometry" />
        </mxCell>
        <mxCell id="FStIwJPfXAHOJmof_Va--39" style="edgeStyle=orthogonalEdgeStyle;rounded=0;orthogonalLoop=1;jettySize=auto;html=1;exitX=0.5;exitY=1;exitDx=0;exitDy=0;entryX=0.5;entryY=0;entryDx=0;entryDy=0;" edge="1" parent="1" source="FStIwJPfXAHOJmof_Va--9" target="FStIwJPfXAHOJmof_Va--17">
          <mxGeometry relative="1" as="geometry" />
        </mxCell>
        <mxCell id="FStIwJPfXAHOJmof_Va--9" value="add timeslot" style="shape=process;whiteSpace=wrap;html=1;backgroundOutline=1;" vertex="1" parent="1">
          <mxGeometry x="425" y="110" width="120" height="60" as="geometry" />
        </mxCell>
        <mxCell id="FStIwJPfXAHOJmof_Va--17" value="date array" style="whiteSpace=wrap;html=1;" vertex="1" parent="1">
          <mxGeometry x="425" y="200" width="120" height="40" as="geometry" />
        </mxCell>
        <mxCell id="FStIwJPfXAHOJmof_Va--21" style="edgeStyle=orthogonalEdgeStyle;rounded=0;orthogonalLoop=1;jettySize=auto;html=1;exitX=0.5;exitY=0;exitDx=0;exitDy=0;entryX=0.5;entryY=0.95;entryDx=0;entryDy=0;entryPerimeter=0;" edge="1" parent="1" source="FStIwJPfXAHOJmof_Va--19" target="FStIwJPfXAHOJmof_Va--8">
          <mxGeometry relative="1" as="geometry" />
        </mxCell>
        <mxCell id="FStIwJPfXAHOJmof_Va--19" value="submit" style="rhombus;whiteSpace=wrap;html=1;" vertex="1" parent="1">
          <mxGeometry x="280" y="185" width="70" height="70" as="geometry" />
        </mxCell>
        <mxCell id="FStIwJPfXAHOJmof_Va--23" value="Select" style="text;html=1;align=center;verticalAlign=middle;resizable=0;points=[];autosize=1;" vertex="1" parent="1">
          <mxGeometry x="210" y="200" width="50" height="20" as="geometry" />
        </mxCell>
        <mxCell id="FStIwJPfXAHOJmof_Va--24" value="no" style="text;html=1;align=center;verticalAlign=middle;resizable=0;points=[];autosize=1;" vertex="1" parent="1">
          <mxGeometry x="310" y="160" width="30" height="20" as="geometry" />
        </mxCell>
        <mxCell id="FStIwJPfXAHOJmof_Va--36" style="edgeStyle=orthogonalEdgeStyle;rounded=0;orthogonalLoop=1;jettySize=auto;html=1;exitX=1;exitY=0.5;exitDx=0;exitDy=0;" edge="1" parent="1" source="FStIwJPfXAHOJmof_Va--29">
          <mxGeometry relative="1" as="geometry">
            <mxPoint x="640" y="330" as="targetPoint" />
          </mxGeometry>
        </mxCell>
        <mxCell id="FStIwJPfXAHOJmof_Va--29" value="Make appointments" style="shape=process;whiteSpace=wrap;html=1;backgroundOutline=1;" vertex="1" parent="1">
          <mxGeometry x="425" y="300" width="120" height="60" as="geometry" />
        </mxCell>
        <mxCell id="FStIwJPfXAHOJmof_Va--33" value="" style="endArrow=none;html=1;entryX=0;entryY=0.5;entryDx=0;entryDy=0;" edge="1" parent="1" source="FStIwJPfXAHOJmof_Va--26" target="FStIwJPfXAHOJmof_Va--17">
          <mxGeometry width="50" height="50" relative="1" as="geometry">
            <mxPoint x="350" y="219" as="sourcePoint" />
            <mxPoint x="410" y="219" as="targetPoint" />
          </mxGeometry>
        </mxCell>
        <mxCell id="FStIwJPfXAHOJmof_Va--26" value="yes" style="text;html=1;align=center;verticalAlign=middle;resizable=0;points=[];autosize=1;" vertex="1" parent="1">
          <mxGeometry x="370" y="210" width="30" height="20" as="geometry" />
        </mxCell>
        <mxCell id="FStIwJPfXAHOJmof_Va--34" value="" style="endArrow=none;html=1;entryX=0;entryY=0.5;entryDx=0;entryDy=0;" edge="1" parent="1" target="FStIwJPfXAHOJmof_Va--26">
          <mxGeometry width="50" height="50" relative="1" as="geometry">
            <mxPoint x="350" y="220" as="sourcePoint" />
            <mxPoint x="425" y="220" as="targetPoint" />
          </mxGeometry>
        </mxCell>
        <mxCell id="FStIwJPfXAHOJmof_Va--35" value="" style="endArrow=classic;html=1;exitX=0.567;exitY=0.95;exitDx=0;exitDy=0;exitPerimeter=0;entryX=0;entryY=0.5;entryDx=0;entryDy=0;" edge="1" parent="1" source="FStIwJPfXAHOJmof_Va--26" target="FStIwJPfXAHOJmof_Va--29">
          <mxGeometry width="50" height="50" relative="1" as="geometry">
            <mxPoint x="400" y="320" as="sourcePoint" />
            <mxPoint x="450" y="270" as="targetPoint" />
            <Array as="points">
              <mxPoint x="387" y="330" />
            </Array>
          </mxGeometry>
        </mxCell>
        <mxCell id="FStIwJPfXAHOJmof_Va--37" value="Appointments" style="rounded=1;whiteSpace=wrap;html=1;" vertex="1" parent="1">
          <mxGeometry x="640" y="300" width="120" height="60" as="geometry" />
        </mxCell>
      </root>
    </mxGraphModel>
  </diagram>
</mxfile>
